# Blender 4.1.1
# www.blender.org
mtllib goal.mtl
o 平面
v -0.000443 0.421163 0.000000
v -0.000443 0.121163 0.000000
v -0.500444 0.421163 -0.000000
v -0.500444 0.121163 -0.000000
v 0.000000 -0.500000 0.050000
v -0.009755 -0.500000 0.049039
v 0.000000 0.500000 0.050000
v 0.009755 -0.500000 0.049039
v 0.019134 -0.500000 0.046194
v 0.009755 0.500000 0.049039
v 0.019134 0.500000 0.046194
v 0.027779 0.500000 0.041573
v 0.035355 0.500000 0.035355
v 0.027779 -0.500000 0.041573
v 0.035355 -0.500000 0.035355
v 0.041573 -0.500000 0.027779
v 0.046194 -0.500000 0.019134
v 0.041573 0.500000 0.027779
v 0.046194 0.500000 0.019134
v 0.049039 0.500000 0.009755
v 0.050000 0.500000 0.000000
v 0.049039 -0.500000 0.009755
v 0.050000 -0.500000 0.000000
v 0.049039 -0.500000 -0.009755
v 0.046194 -0.500000 -0.019134
v 0.049039 0.500000 -0.009755
v 0.046194 0.500000 -0.019134
v 0.041573 0.500000 -0.027779
v 0.035355 0.500000 -0.035355
v 0.041573 -0.500000 -0.027779
v 0.035355 -0.500000 -0.035355
v 0.027779 -0.500000 -0.041573
v 0.019134 -0.500000 -0.046194
v 0.027779 0.500000 -0.041573
v 0.019134 0.500000 -0.046194
v 0.009755 0.500000 -0.049039
v 0.000000 0.500000 -0.050000
v 0.009755 -0.500000 -0.049039
v 0.000000 -0.500000 -0.050000
v -0.009755 -0.500000 -0.049039
v -0.019134 -0.500000 -0.046194
v -0.009755 0.500000 -0.049039
v -0.019134 0.500000 -0.046194
v -0.027779 0.500000 -0.041573
v -0.035355 0.500000 -0.035355
v -0.027779 -0.500000 -0.041573
v -0.035355 -0.500000 -0.035355
v -0.041573 -0.500000 -0.027779
v -0.046194 -0.500000 -0.019134
v -0.041573 0.500000 -0.027779
v -0.046194 0.500000 -0.019134
v -0.049039 0.500000 -0.009755
v -0.050000 0.500000 0.000000
v -0.049039 -0.500000 -0.009755
v -0.050000 -0.500000 0.000000
v -0.049039 -0.500000 0.009755
v -0.046194 -0.500000 0.019134
v -0.049039 0.500000 0.009755
v -0.046194 0.500000 0.019134
v -0.041573 0.500000 0.027779
v -0.035355 0.500000 0.035355
v -0.041573 -0.500000 0.027779
v -0.035355 -0.500000 0.035355
v -0.027779 -0.500000 0.041573
v -0.019134 -0.500000 0.046194
v -0.027779 0.500000 0.041573
v -0.019134 0.500000 0.046194
v -0.009755 0.500000 0.049039
vn -0.0000 -0.0000 -1.0000
vn -0.0000 -1.0000 -0.0000
vn -0.0980 -0.0000 0.9952
vn 0.0980 -0.0000 0.9952
vn 0.2903 -0.0000 0.9569
vn -0.0000 1.0000 -0.0000
vn 0.4714 -0.0000 0.8819
vn 0.6344 -0.0000 0.7730
vn 0.7730 -0.0000 0.6344
vn 0.8819 -0.0000 0.4714
vn 0.9569 -0.0000 0.2903
vn 0.9952 -0.0000 0.0980
vn 0.9952 -0.0000 -0.0980
vn 0.9569 -0.0000 -0.2903
vn 0.8819 -0.0000 -0.4714
vn 0.7730 -0.0000 -0.6344
vn 0.6344 -0.0000 -0.7730
vn 0.4714 -0.0000 -0.8819
vn 0.2903 -0.0000 -0.9569
vn 0.0980 -0.0000 -0.9952
vn -0.0980 -0.0000 -0.9952
vn -0.2903 -0.0000 -0.9569
vn -0.4714 -0.0000 -0.8819
vn -0.6344 -0.0000 -0.7730
vn -0.7730 -0.0000 -0.6344
vn -0.8819 -0.0000 -0.4714
vn -0.9569 -0.0000 -0.2903
vn -0.9952 -0.0000 -0.0980
vn -0.9952 -0.0000 0.0980
vn -0.9569 -0.0000 0.2903
vn -0.8819 -0.0000 0.4714
vn -0.7730 -0.0000 0.6344
vn -0.6344 -0.0000 0.7730
vn -0.4714 -0.0000 0.8819
vn -0.2903 -0.0000 0.9569
vt 0.261949 0.500000
vt 0.492383 0.039132
vt 0.492383 0.500000
vt 0.305204 0.736187
vt 0.274019 0.745647
vt 0.264559 0.714462
vt 0.111409 0.960868
vt 0.106891 0.039132
vt 0.111409 0.039132
vt 0.115926 0.960868
vt 0.115926 0.039132
vt 0.120443 0.960868
vt 0.120443 0.039132
vt 0.306932 0.594507
vt 0.291570 0.623247
vt 0.262830 0.607885
vt 0.124960 0.960868
vt 0.124960 0.039132
vt 0.129478 0.960868
vt 0.129478 0.039132
vt 0.133995 0.960868
vt 0.133995 0.039132
vt 0.138512 0.960868
vt 0.138512 0.039132
vt 0.143030 0.960868
vt 0.143030 0.039132
vt 0.147547 0.960868
vt 0.147547 0.039132
vt 0.152064 0.960868
vt 0.152064 0.039132
vt 0.156581 0.960868
vt 0.156581 0.039132
vt 0.161099 0.960868
vt 0.161099 0.039132
vt 0.165616 0.960868
vt 0.165616 0.039132
vt 0.170133 0.960868
vt 0.170133 0.039132
vt 0.174651 0.960868
vt 0.174651 0.039132
vt 0.179168 0.960868
vt 0.179168 0.039132
vt 0.183685 0.960868
vt 0.183685 0.039132
vt 0.043649 0.960868
vt 0.039132 0.039132
vt 0.043649 0.039132
vt 0.048166 0.960868
vt 0.048166 0.039132
vt 0.052684 0.960868
vt 0.052684 0.039132
vt 0.057201 0.960868
vt 0.057201 0.039132
vt 0.061718 0.960868
vt 0.061718 0.039132
vt 0.066236 0.960868
vt 0.066236 0.039132
vt 0.070753 0.960868
vt 0.070753 0.039132
vt 0.075270 0.960868
vt 0.075270 0.039132
vt 0.079787 0.960868
vt 0.079787 0.039132
vt 0.084305 0.960868
vt 0.084305 0.039132
vt 0.088822 0.960868
vt 0.088822 0.039132
vt 0.093339 0.960868
vt 0.093339 0.039132
vt 0.097857 0.960868
vt 0.097857 0.039132
vt 0.102374 0.960868
vt 0.102374 0.039132
vt 0.106891 0.960868
vt 0.261949 0.039132
vt 0.267068 0.710706
vt 0.270263 0.707511
vt 0.274019 0.705002
vt 0.278192 0.703273
vt 0.282622 0.702392
vt 0.287140 0.702392
vt 0.291570 0.703273
vt 0.295744 0.705002
vt 0.299500 0.707511
vt 0.302694 0.710706
vt 0.305204 0.714462
vt 0.306932 0.718635
vt 0.307814 0.723066
vt 0.307814 0.727583
vt 0.306932 0.732013
vt 0.302694 0.739943
vt 0.299500 0.743137
vt 0.295744 0.745647
vt 0.291570 0.747375
vt 0.287140 0.748257
vt 0.282623 0.748257
vt 0.278192 0.747375
vt 0.270263 0.743137
vt 0.267068 0.739943
vt 0.264559 0.736187
vt 0.262830 0.732013
vt 0.261949 0.727583
vt 0.261949 0.723066
vt 0.262830 0.718635
vt 0.261949 0.603455
vt 0.261949 0.598937
vt 0.262830 0.594507
vt 0.264559 0.590333
vt 0.267068 0.586577
vt 0.270263 0.583383
vt 0.274019 0.580873
vt 0.278192 0.579145
vt 0.282623 0.578264
vt 0.287140 0.578264
vt 0.291570 0.579145
vt 0.295744 0.580873
vt 0.299500 0.583383
vt 0.302694 0.586577
vt 0.305204 0.590333
vt 0.307814 0.598937
vt 0.307814 0.603455
vt 0.306932 0.607885
vt 0.305204 0.612059
vt 0.302694 0.615815
vt 0.299500 0.619009
vt 0.295744 0.621518
vt 0.287140 0.624128
vt 0.282622 0.624128
vt 0.278192 0.623247
vt 0.274018 0.621518
vt 0.270263 0.619009
vt 0.267068 0.615815
vt 0.264559 0.612059
vt 0.039132 0.960868
s 0
usemtl マテリアル
f 2/1/1 3/2/1 1/3/1
f 40/4/2 24/5/2 8/6/2
f 7/7/3 6/8/3 5/9/3
f 10/10/4 5/9/4 8/11/4
f 11/12/5 8/11/5 9/13/5
f 35/14/6 51/15/6 67/16/6
f 12/17/7 9/13/7 14/18/7
f 13/19/8 14/18/8 15/20/8
f 18/21/9 15/20/9 16/22/9
f 19/23/10 16/22/10 17/24/10
f 20/25/11 17/24/11 22/26/11
f 21/27/12 22/26/12 23/28/12
f 26/29/13 23/28/13 24/30/13
f 27/31/14 24/30/14 25/32/14
f 28/33/15 25/32/15 30/34/15
f 29/35/16 30/34/16 31/36/16
f 34/37/17 31/36/17 32/38/17
f 35/39/18 32/38/18 33/40/18
f 36/41/19 33/40/19 38/42/19
f 37/43/20 38/42/20 39/44/20
f 42/45/21 39/46/21 40/47/21
f 43/48/22 40/47/22 41/49/22
f 44/50/23 41/49/23 46/51/23
f 45/52/24 46/51/24 47/53/24
f 50/54/25 47/53/25 48/55/25
f 51/56/26 48/55/26 49/57/26
f 52/58/27 49/57/27 54/59/27
f 53/60/28 54/59/28 55/61/28
f 58/62/29 55/61/29 56/63/29
f 59/64/30 56/63/30 57/65/30
f 60/66/31 57/65/31 62/67/31
f 61/68/32 62/67/32 63/69/32
f 66/70/33 63/69/33 64/71/33
f 67/72/34 64/71/34 65/73/34
f 68/74/35 65/73/35 6/8/35
f 2/1/1 4/75/1 3/2/1
f 8/6/2 5/76/2 6/77/2
f 6/77/2 65/78/2 64/79/2
f 64/79/2 63/80/2 62/81/2
f 62/81/2 57/82/2 56/83/2
f 56/83/2 55/84/2 54/85/2
f 54/85/2 49/86/2 48/87/2
f 48/87/2 47/88/2 46/89/2
f 46/89/2 41/90/2 40/4/2
f 40/4/2 39/91/2 38/92/2
f 38/92/2 33/93/2 32/94/2
f 32/94/2 31/95/2 30/96/2
f 30/96/2 25/97/2 24/5/2
f 24/5/2 23/98/2 22/99/2
f 22/99/2 17/100/2 16/101/2
f 16/101/2 15/102/2 14/103/2
f 14/103/2 9/104/2 8/6/2
f 8/6/2 6/77/2 64/79/2
f 64/79/2 62/81/2 56/83/2
f 56/83/2 54/85/2 48/87/2
f 48/87/2 46/89/2 40/4/2
f 40/4/2 38/92/2 32/94/2
f 32/94/2 30/96/2 24/5/2
f 24/5/2 22/99/2 16/101/2
f 16/101/2 14/103/2 8/6/2
f 8/6/2 64/79/2 56/83/2
f 56/83/2 48/87/2 40/4/2
f 40/4/2 32/94/2 24/5/2
f 24/5/2 16/101/2 8/6/2
f 8/6/2 56/83/2 40/4/2
f 7/7/3 68/74/3 6/8/3
f 10/10/4 7/7/4 5/9/4
f 11/12/5 10/10/5 8/11/5
f 67/16/6 68/105/6 7/106/6
f 7/106/6 10/107/6 11/108/6
f 11/108/6 12/109/6 13/110/6
f 13/110/6 18/111/6 19/112/6
f 19/112/6 20/113/6 21/114/6
f 21/114/6 26/115/6 27/116/6
f 27/116/6 28/117/6 29/118/6
f 29/118/6 34/119/6 35/14/6
f 35/14/6 36/120/6 37/121/6
f 37/121/6 42/122/6 43/123/6
f 43/123/6 44/124/6 45/125/6
f 45/125/6 50/126/6 51/15/6
f 51/15/6 52/127/6 53/128/6
f 53/128/6 58/129/6 59/130/6
f 59/130/6 60/131/6 61/132/6
f 61/132/6 66/133/6 67/16/6
f 67/16/6 7/106/6 11/108/6
f 11/108/6 13/110/6 19/112/6
f 19/112/6 21/114/6 27/116/6
f 27/116/6 29/118/6 35/14/6
f 35/14/6 37/121/6 43/123/6
f 43/123/6 45/125/6 51/15/6
f 51/15/6 53/128/6 59/130/6
f 59/130/6 61/132/6 67/16/6
f 67/16/6 11/108/6 19/112/6
f 19/112/6 27/116/6 35/14/6
f 35/14/6 43/123/6 51/15/6
f 51/15/6 59/130/6 67/16/6
f 67/16/6 19/112/6 35/14/6
f 12/17/7 11/12/7 9/13/7
f 13/19/8 12/17/8 14/18/8
f 18/21/9 13/19/9 15/20/9
f 19/23/10 18/21/10 16/22/10
f 20/25/11 19/23/11 17/24/11
f 21/27/12 20/25/12 22/26/12
f 26/29/13 21/27/13 23/28/13
f 27/31/14 26/29/14 24/30/14
f 28/33/15 27/31/15 25/32/15
f 29/35/16 28/33/16 30/34/16
f 34/37/17 29/35/17 31/36/17
f 35/39/18 34/37/18 32/38/18
f 36/41/19 35/39/19 33/40/19
f 37/43/20 36/41/20 38/42/20
f 42/45/21 37/134/21 39/46/21
f 43/48/22 42/45/22 40/47/22
f 44/50/23 43/48/23 41/49/23
f 45/52/24 44/50/24 46/51/24
f 50/54/25 45/52/25 47/53/25
f 51/56/26 50/54/26 48/55/26
f 52/58/27 51/56/27 49/57/27
f 53/60/28 52/58/28 54/59/28
f 58/62/29 53/60/29 55/61/29
f 59/64/30 58/62/30 56/63/30
f 60/66/31 59/64/31 57/65/31
f 61/68/32 60/66/32 62/67/32
f 66/70/33 61/68/33 63/69/33
f 67/72/34 66/70/34 64/71/34
f 68/74/35 67/72/35 65/73/35
